/* XPM */
static char *enemy[] = {
/* columns rows colors chars-per-pixel */
"40 40 199 2 ",
"   c #010101",
".  c #050B03",
"X  c #0B0C0B",
"o  c #091506",
"O  c #0B1906",
"+  c #0D140C",
"@  c #0D1B09",
"#  c #05120A",
"$  c #111B0E",
"%  c #061E13",
"&  c #131413",
"*  c #161C14",
"=  c #1B1B1C",
"-  c #152F0F",
";  c #17320F",
":  c #0A2216",
">  c #0A2718",
",  c #193812",
"<  c #182814",
"1  c #20301D",
"2  c #0C3425",
"3  c #212121",
"4  c #2C2C2C",
"5  c #222A25",
"6  c #283424",
"7  c #2C3928",
"8  c #283934",
"9  c #343534",
"0  c #353A33",
"q  c #3D3E3D",
"w  c #1D4014",
"e  c #1B411A",
"r  c #26571A",
"t  c #244F17",
"y  c #32711F",
"u  c #2E671E",
"i  c #0E4A2B",
"p  c #184A2A",
"a  c #094230",
"s  c #0B573E",
"d  c #1F483C",
"f  c #33432E",
"g  c #344330",
"h  c #3B453C",
"j  c #3B473B",
"k  c #234323",
"l  c #126237",
"z  c #367D22",
"x  c #397F24",
"c  c #2B6928",
"v  c #41473F",
"b  c #467A35",
"n  c #085D45",
"m  c #29594C",
"M  c #375248",
"N  c #294C42",
"B  c #0A6746",
"V  c #116F54",
"C  c #0C7E5A",
"Z  c #0C7853",
"A  c #3B6F5F",
"S  c #444444",
"D  c #494C48",
"F  c #49544A",
"G  c #545553",
"H  c #595959",
"J  c #4E7341",
"K  c #436256",
"L  c #556B4F",
"P  c gray38",
"I  c #6C6C6C",
"U  c #737373",
"Y  c #7B7C7B",
"T  c #389032",
"R  c #439B2A",
"E  c #4E813D",
"W  c #51953C",
"Q  c #4AB537",
"!  c #52B733",
"~  c #4DCB3F",
"^  c #56C534",
"/  c #5FD03B",
"(  c #66E63D",
")  c #12835D",
"_  c #3BB446",
"`  c #33A744",
"'  c #098A66",
"]  c #0B986D",
"[  c #099B72",
"{  c #199372",
"}  c #2E8064",
"|  c #358C75",
" . c #1EBA6E",
".. c #09A57A",
"X. c #07A679",
"o. c #28BA7E",
"O. c #538C47",
"+. c #4C8155",
"@. c #4BB146",
"#. c #54A44A",
"$. c #499061",
"%. c #47BC62",
"&. c #3CDB5E",
"*. c #16C07B",
"=. c #30D368",
"-. c #3FEE7C",
";. c #37FB7A",
":. c #54CE40",
">. c #51C759",
",. c #5AD950",
"<. c #4FD44C",
"1. c #63D441",
"2. c #4FF25C",
"3. c #54F556",
"4. c #4BE254",
"5. c #63E744",
"6. c #7FE45E",
"7. c #47F965",
"8. c #0DB587",
"9. c #2DB980",
"0. c #20B890",
"q. c #7D9F96",
"w. c #7EB3A5",
"e. c #0AC48B",
"r. c #0DC587",
"t. c #1EDD84",
"y. c #06CA95",
"u. c #09CA95",
"i. c #1CC293",
"p. c #06D19A",
"a. c #07D89F",
"s. c #13C781",
"d. c #18F399",
"f. c #21EA88",
"g. c #28FC8A",
"h. c #05DCA1",
"j. c #04E3A6",
"k. c #0EE1A9",
"l. c #04ECAD",
"z. c #0CFDAB",
"x. c #13FDA4",
"c. c #10FDA8",
"v. c #09EDB0",
"b. c #03F7B5",
"n. c #04FBB6",
"m. c #00FDBA",
"M. c #15FBBF",
"N. c #18FBBF",
"B. c #7BCCB3",
"V. c #40FBA9",
"C. c #1BFBC1",
"Z. c #29FBC4",
"A. c #39F9C7",
"S. c #3DF9C8",
"D. c #49F8CB",
"F. c #50F7CD",
"G. c #5EF9D1",
"H. c #65FAD3",
"J. c #7BF8D8",
"K. c #74F2D2",
"L. c #828282",
"P. c #8E8E8E",
"I. c #9C9C9C",
"U. c #959595",
"Y. c #ACACAC",
"T. c #A4A4A4",
"R. c #B4B4B4",
"E. c #BCBCBC",
"W. c #8BC683",
"Q. c #B1F29C",
"!. c #9DC6BC",
"~. c #82F7D9",
"^. c #8DF6DC",
"/. c #94F7DF",
"(. c #96F8DF",
"). c #90F3CF",
"_. c #B3E9DC",
"`. c #9DF8E1",
"'. c #A6F7E3",
"]. c #B3F5E4",
"[. c #BCF7E8",
"{. c #C2C2C2",
"}. c #CBCBCB",
"|. c #C6CDC5",
" X c #D5D5D5",
".X c #DBDBDB",
"XX c #C0D8D2",
"oX c #CEF8D8",
"OX c #C3F7EA",
"+X c #CDF6EC",
"@X c #D3F7EE",
"#X c #DCF7F0",
"$X c #C7FCF0",
"%X c #E4E4E4",
"&X c #EDEDED",
"*X c #E6EAE7",
"=X c #E4F6F2",
"-X c #EFF6F5",
";X c #489848",
/* pixels */
";X;X;X;X;X;X;X;X;X;X;X;X;X;X;X;X;X;X;X;X;X;X;X;X;X;X;X;X;X;X;X;X;X;X;X;X;X;X;X;X",
";X;X;X;X;X;X;X;X;X;X;X;X;X;X;X;X;X;X;X;X;X;X;X;X;X;X;X;X;X;X;X;X;X;X;X;X;X;X;X;X",
";X;X;X;X;X;X;X;X;X;X;X;X;X#XF.;X;X;X;X;X;X;X;X;X=X;X;X;X;X;X;X;X;X;X;X;X;X;X;X;X",
";X;X;X;X;X;X;X;X;X;X;X;X;X#XS.;X;X;X;X;X;X;X;X#XS.;X;X;X;X;X;X;X;X;X;X;X;X;X;X;X",
";X;X;X;X;X;X;X;X;X;X;X;X;X#XD.;X;X@X^.;X;X;X;X=XA.;X~.=X;X;X;X;X;X;X;X;X;X;X;X;X",
";X;X;X;X;X;X;X;X;X;X;X;X;X-X+X;X;XOXC.].;X;X;X;X+X;X+X&X;X;X;X;X;X;X;X;X;X;X;X;X",
";X;X;X;X;X;X;X;X;X;X;X;X;X;X;X$X=X[.m.`.'.[.-X;X;X;XY.S ;X;X;X;X;X;X;X;X;X;X;X;X",
";X;X;X;X;X;X;X;X;X-XP.;X;X;X;XJ.OXOXm.`.C.Z.$X;X;XR.= 9 ;X;X;X;X;X;X;X;X;X;X;X;X",
";X;X;X;X;X;X;X;X;X&X3 U %X*X$XC._.A m.Z.v.m.^..XM q M & L.;X;X;X;X;X;X;X;X;X;X;X",
";X;X;X;X;X;X;X;X;X&X= & & * w.h.2 i m.u.% m.' : h.[ ;.k S Y.&X;X;X;X;X;X;X;X;X;X",
";X;X;X;X;X;X;X;X;XT.9 g A 2 ] { * ] p.d > m.m...m.m.b.M & 4 L.&X;X;X;X;X;X;X;X;X",
";X;X;X;X;X;X;X;X&XG * F 0.h.p.8 < i.N & e.m.m.m.m.m.n.@.X & = &X;X;X;X;X;X;X;X;X",
";X;X;X;X;X;X;X&XL.X p [ ] b.8.3     * 1 l.m.h.y.m.m.n.,.q + = &X;X;X;X;X;X;X;X;X",
";X;X;X;X;X;X;X{.3 7 K y.y.j.@       o . C m.n # g.m.n.,.S 4 Y ;X;X;X;X;X;X;X;X;X",
";X;X;X;X;X;X;XE.= 7 K n.m.Z [ O . i )   % m.&.~ x.m.v.,.v *  X;X;X;X+X(.;X;X;X;X",
";X;X;X;X;X;X;X4 3 f +.n.m.n > T 4., # . 2 r.*.z.m.m.Z ! o . 9 &X;X;X].J.;X;X;X;X",
";X;X;X;X;X;X&X= 3 0 #.g.m.j.e ;.H.W.. B b.x.x.m.j.*.9.c     X T.;X;X@X[.;X;X;X;X",
";X;X;X;X;X;X;XL.= 6 F T d.j.e ;.$X}.. X.m.m.m.b.f.W 6         3 E.=XH.'.;X-X;X;X",
";X;X;X;X;X;X;X{.  @ $ E g.j.- =.!.I.% e.m.m.m.s @.7             q.@XM./.;XJ.;X;X",
";X;X;X;X;X;X;X{.    < b g.l.s 2 B % [ n.m.c.c.' V m X         , s.H.Z.OX;X;X;X;X",
";X;X;X;X-X;XQ.F       ; _ c.l.p.m.8.m.m.m.g.%.k.h.m .       o r ` Z b.J.;X^.;X;X",
";X;X;X=XD..X6.@       + o <.n.m.m.m.m.m.u.&.2.+.M X         @ t T l b.J.;X=X;X;X",
";X;X;X=XA.L.! @     X 5 < ~ f.X.f.m.j.h.: R 1.L 7 =         . o u =.r.J.;X;X;X;X",
";X;X;X=XS.B.<.O         & E ! . ^ z.t.t.Q / f 3 =             . . Q r.Z.+X;X;X;X",
";X;X;X=X].-.r . O       $ * J / ( 7.g.5.5.0 X < S 3   X X     . . ; 7.n.N.=X;X;X",
";X;X;XF.XX_ w   o     = G * + 0 F 2.i.v 0 X 9 D = - O I R.3     . O _ x.n.=X;X;X",
";X;X;XD.oX` O         H U.j o   v 3.i.3   . h 8 o.x * .X;XH     . O w 3.).-X;X;X",
";X;X;XS.V.T @       & }.%XY G 3 & O.>.5   6 4 * p O U.;X;X}.&     . , T |.;X;X;X",
";X;X;XK. .T .       = &X;X-X.XP X J 7.| X q q ) z 4  X;X;X&X=       O o {.;X;X;X",
";X;X;X&XR y o       = &X;X;X;XT.9 f >.$.. = =   = E.;X;X;X;XY         . {.;X;X;X",
";X;X;X%Xu y .   X & Y.;X;X;X;X%XI & 6 6 X S =   9 ;X;X;X;X&XD = .       {.;X;X;X",
";X;X;X%X4 . @   G P .X;X;X;X;X;X9 4       4     9 ;X;X;X;X&X9 %XH       {.;X;X;X",
";X;X;X;X{.O .   H P .X;X;X;X;X;X9               9 ;X;X;X;X&X9 &XH       {.;X;X;X",
";X;X;X;X{.      H  X&X;X;X;X;X;X9   S {.{.Y     X U.;X;X;X;X}.R.&   9 P {.;X;X;X",
";X;X;X;X&XP.&   = R.;X;X;X;X;X;XU X H ;X;X&XU =   Y ;X;X;X;X%XS 9 {.%X&X;X;X;X;X",
";X;X;X;X;X;XI.P H ;X;X;X;X;X;X;XR.4 4 }.;X;X;XU 3 q .X;X;X;X;X;X;X;X;X;X;X;X;X;X",
";X;X;X;X;X;X;X*X}.;X;X;X;X;X;X;X;X3   I.;X;X;X{.&   {.;X;X;X;X;X;X;X;X;X;X;X;X;X",
";X;X;X;X;X;X;X;X;X;X;X;X;X;X;X;X;XD   I.;X;X;X&Xq   {.;X;X;X;X;X;X;X;X;X;X;X;X;X",
";X;X;X;X;X;X;X;X;X;X;X;X;X;X;X;X;XI.U }.;X;X;X&XU.U .X;X;X;X;X;X;X;X;X;X;X;X;X;X",
";X;X;X;X;X;X;X;X;X;X;X;X;X;X;X;X;X;X;X;X;X;X;X;X;X;X;X;X;X;X;X;X;X;X;X;X;X;X;X;X"
};z
